<svg width="16" height="16" viewBox="0 0 16 16" fill="none" xmlns="http://www.w3.org/2000/svg">
<g id="video-playlist 1" clip-path="url(#clip0_549_5083)">
<g id="Group">
<path id="Vector" d="M15.0002 3.99975H1.00024C0.866825 3.99173 0.733227 4.0121 0.608267 4.05952C0.483307 4.10694 0.369827 4.18032 0.275319 4.27483C0.180811 4.36934 0.107426 4.48282 0.060008 4.60778C0.01259 4.73274 -0.00778171 4.86634 0.000237932 4.99975V14.9997C-0.00778171 15.1332 0.01259 15.2668 0.060008 15.3917C0.107426 15.5167 0.180811 15.6302 0.275319 15.7247C0.369827 15.8192 0.483307 15.8926 0.608267 15.94C0.733227 15.9874 0.866825 16.0078 1.00024 15.9997H15.0002C15.1337 16.0078 15.2672 15.9874 15.3922 15.94C15.5172 15.8926 15.6306 15.8192 15.7252 15.7247C15.8197 15.6302 15.8931 15.5167 15.9405 15.3917C15.9879 15.2668 16.0083 15.1332 16.0002 14.9997V4.99975C16.0083 4.86634 15.9879 4.73274 15.9405 4.60778C15.8931 4.48282 15.8197 4.36934 15.7252 4.27483C15.6306 4.18032 15.5172 4.10694 15.3922 4.05952C15.2672 4.0121 15.1337 3.99173 15.0002 3.99975ZM6.00024 12.9997V6.99975L11.0002 9.99975L6.00024 12.9997Z" fill="#5956E9"/>
<path id="Vector_2" d="M3 0H13C13.2652 0 13.5196 0.105357 13.7071 0.292893C13.8946 0.48043 14 0.734784 14 1V2H2V1C2 0.734784 2.10536 0.48043 2.29289 0.292893C2.48043 0.105357 2.73478 0 3 0V0Z" fill="#FAB8C4"/>
</g>
</g>
<defs>
<clipPath id="clip0_549_5083">
<rect width="16" height="16" fill="white"/>
</clipPath>
</defs>
</svg>
